<svg xmlns="http://www.w3.org/2000/svg" width="100" height="100" viewBox="0 0 100 100"><defs><clipPath id="khkja"><path fill="#fff" d="M61.123 23.932l17.812 17.703a6.924 6.924 0 0 1 0 9.834L51.722 78.515a6.978 6.978 0 0 1-3.592 1.906 7.005 7.005 0 0 1-2.88.583l-16.968-.155c-3.904-.035-7.099-3.21-7.134-7.09l-.156-16.865a6.858 6.858 0 0 1 2.61-5.469c.13-.153.268-.303.413-.447l27.212-27.046a7.028 7.028 0 0 1 9.896 0zM30.9 63.766a4.847 4.847 0 0 0 0 6.884 4.92 4.92 0 0 0 6.926 0 4.847 4.847 0 0 0 0-6.884 4.92 4.92 0 0 0-6.926 0z"/></clipPath><clipPath id="khkjb"><path fill="#fff" d="M36.219 73.329S25.023 63.245 25.023 42.035 29.921 17 32.02 17c2.1 0 5.948 4.172 6.298 21.558"/></clipPath></defs><g><g><path fill="#030303" d="M0 0h100v100H0z"/></g><g><g><path fill="none" stroke="#000" stroke-miterlimit="20" stroke-width="6" d="M61.123 23.932l17.812 17.703a6.924 6.924 0 0 1 0 9.834L51.722 78.515a6.978 6.978 0 0 1-3.592 1.906 7.005 7.005 0 0 1-2.88.583l-16.968-.155c-3.904-.035-7.099-3.21-7.134-7.09l-.156-16.865a6.858 6.858 0 0 1 2.61-5.469c.13-.153.268-.303.413-.447l27.212-27.046a7.028 7.028 0 0 1 9.896 0zM30.9 63.766a4.847 4.847 0 0 0 0 6.884 4.92 4.92 0 0 0 6.926 0 4.847 4.847 0 0 0 0-6.884 4.92 4.92 0 0 0-6.926 0z" clip-path="url(&quot;#khkja&quot;)"/></g><g><path fill="none" stroke="#000" stroke-miterlimit="20" stroke-width="6" d="M36.219 73.329v0S25.023 63.245 25.023 42.035 29.921 17 32.02 17c2.1 0 5.948 4.172 6.298 21.558" clip-path="url(&quot;#khkjb&quot;)"/></g></g></g></svg>