<?xml version="1.0" encoding="UTF-8"?>
<svg id="SVGDoc" width="100" height="100" xmlns="http://www.w3.org/2000/svg" version="1.1" xmlns:xlink="http://www.w3.org/1999/xlink" xmlns:avocode="https://avocode.com/" viewBox="0 0 100 100"><defs><clipPath id="ClipPath1152"><path d="M29.28474,66.74386c-9.72561,-9.73117 -9.72561,-25.50881 0,-35.23951c15.48917,-15.49821 50.71551,-15.50556 50.71551,-15.50556v0c0,0 -0.00733,35.24671 -15.49666,50.74507c-9.72521,9.73085 -25.49332,9.73085 -35.21885,0z" fill="#ffffff"></path></clipPath><clipPath id="ClipPath1159"><path d="M24.93667,83.59922c0,0 -5.87933,-47.18305 54.32909,-66.86459" fill="#ffffff"></path></clipPath><clipPath id="ClipPath1166"><path d="M30.81006,59.35165v-0.73475h-1.46833v-19.10419h1.46833v18.36944h28.63295v1.46949zM39.62019,43.1866v-0.73475h-0.73416v-13.96081h1.46833v13.22591h24.96205v1.46965zM55.77211,29.96054v-0.73459h-0.73416v-6.61303h1.46833v5.87813h15.41768v1.46949z" fill="#ffffff"></path></clipPath></defs><desc>Generated with Avocode.</desc><g><g><title>Rectangle 14</title><path d="M-0.00006,-0.0001v0h99.99998v0v99.99999v0h-99.99998v0z" fill="#030303" fill-opacity="1"></path></g><g><title>leaf</title><g><title>Shape 10</title><path d="M29.28474,66.74386c-9.72561,-9.73117 -9.72561,-25.50881 0,-35.23951c15.48917,-15.49821 50.71551,-15.50556 50.71551,-15.50556v0c0,0 -0.00733,35.24671 -15.49666,50.74507c-9.72521,9.73085 -25.49332,9.73085 -35.21885,0z" fill-opacity="0" fill="#ffffff" stroke-dashoffset="0" stroke-dasharray="" stroke-linejoin="miter" stroke-linecap="butt" stroke-opacity="1" stroke="#000000" stroke-miterlimit="20" stroke-width="6" clip-path="url(&quot;#ClipPath1152&quot;)"></path></g><g><title>Shape 12</title><path d="M24.93667,83.59922c0,0 -5.87933,-47.18305 54.32909,-66.86459" fill-opacity="0" fill="#ffffff" stroke-dashoffset="0" stroke-dasharray="" stroke-linejoin="miter" stroke-linecap="butt" stroke-opacity="1" stroke="#000000" stroke-miterlimit="20" stroke-width="6" clip-path="url(&quot;#ClipPath1159&quot;)"></path></g><g><title>Shape 13</title><path d="M30.81006,59.35165v-0.73475h-1.46833v-19.10419h1.46833v18.36944h28.63295v1.46949zM39.62019,43.1866v-0.73475h-0.73416v-13.96081h1.46833l0,13.22591h24.96205v1.46965zM55.77211,29.96054v-0.73459h-0.73416v-6.61303h1.46833v5.87813h15.41768v1.46949z" fill-opacity="0" fill="#ffffff" stroke-dashoffset="0" stroke-dasharray="" stroke-linejoin="miter" stroke-linecap="butt" stroke-opacity="1" stroke="#000000" stroke-miterlimit="20" stroke-width="6" clip-path="url(&quot;#ClipPath1166&quot;)"></path></g></g></g></svg>